<?xml version="1.0" encoding="utf-8"?>
<!-- Generator: Adobe Illustrator 23.0.0, SVG Export Plug-In . SVG Version: 6.00 Build 0)  -->
<svg version="1.1" id="Layer_1" xmlns="http://www.w3.org/2000/svg" xmlns:xlink="http://www.w3.org/1999/xlink" x="0px" y="0px"
	 viewBox="0 0 817 107" style="enable-background:new 0 0 817 107;" xml:space="preserve">
<style type="text/css">
	.st0{fill:#1B1B1B;}
	.st1{fill:#0077D5;}
	.st2{fill:#0096F5;}
</style>
<g>
	<g>
		<path class="st0" d="M218.8,64.8c1.6,0,2.8-0.4,3.7-1.3c0.9-0.9,1.3-2,1.3-3.6h10.5c0,4-1.4,7.2-4.3,9.7
			c-2.8,2.5-6.5,3.8-10.9,3.8c-5.2,0-9.4-1.6-12.4-4.9s-4.5-7.8-4.5-13.7v-0.5c0-3.6,0.7-6.9,2-9.6c1.3-2.8,3.3-4.9,5.8-6.4
			c2.5-1.5,5.5-2.2,9-2.2c4.7,0,8.4,1.3,11.2,3.9c2.8,2.6,4.1,6.1,4.1,10.6h-10.5c0-1.9-0.5-3.3-1.4-4.3c-0.9-1-2.1-1.5-3.7-1.5
			c-2.9,0-4.6,1.9-5.1,5.6c-0.2,1.2-0.2,2.8-0.2,4.9c0,3.6,0.4,6.1,1.3,7.5C215.5,64.1,216.9,64.8,218.8,64.8z"/>
		<path class="st0" d="M259.3,72.8c-0.4-0.7-0.8-1.8-1.1-3.2c-2.1,2.6-5,3.9-8.7,3.9c-3.4,0-6.3-1-8.7-3.1c-2.4-2.1-3.6-4.6-3.6-7.7
			c0-3.9,1.4-6.9,4.3-8.9c2.9-2,7.1-3,12.6-3h3.5v-1.9c0-3.3-1.4-5-4.3-5c-2.7,0-4,1.3-4,4h-11.2c0-3.5,1.5-6.3,4.4-8.5
			s6.7-3.3,11.3-3.3c4.6,0,8.2,1.1,10.9,3.4c2.7,2.2,4,5.3,4.1,9.2v16c0,3.3,0.6,5.8,1.5,7.6v0.6H259.3z M252.3,65.5
			c1.4,0,2.6-0.3,3.5-0.9c0.9-0.6,1.6-1.3,2-2v-5.8h-3.3c-3.9,0-5.9,1.8-5.9,5.3c0,1,0.3,1.8,1,2.5
			C250.4,65.2,251.2,65.5,252.3,65.5z"/>
		<path class="st0" d="M287.1,72.8h-11.3V21.6h11.3V72.8z"/>
		<path class="st0" d="M309.3,64.8c1.6,0,2.8-0.4,3.7-1.3c0.9-0.9,1.3-2,1.3-3.6h10.5c0,4-1.4,7.2-4.2,9.7
			c-2.8,2.5-6.5,3.8-10.9,3.8c-5.2,0-9.4-1.6-12.4-4.9c-3-3.3-4.5-7.8-4.5-13.7v-0.5c0-3.6,0.7-6.9,2-9.6c1.3-2.8,3.3-4.9,5.8-6.4
			c2.5-1.5,5.5-2.2,9-2.2c4.7,0,8.4,1.3,11.2,3.9c2.8,2.6,4.1,6.1,4.1,10.6h-10.5c0-1.9-0.5-3.3-1.4-4.3s-2.1-1.5-3.7-1.5
			c-2.9,0-4.6,1.9-5.1,5.6c-0.2,1.2-0.2,2.8-0.2,4.9c0,3.6,0.4,6.1,1.3,7.5C306,64.1,307.4,64.8,309.3,64.8z"/>
		<path class="st0" d="M350.9,68.9c-2.4,3-5.6,4.6-9.6,4.6c-4,0-6.9-1.1-9-3.4c-2-2.3-3-5.6-3-9.9V36.8h11.2v23.4
			c0,3.1,1.5,4.6,4.5,4.6c2.6,0,4.4-0.9,5.5-2.8V36.8h11.3v36.1h-10.5L350.9,68.9z"/>
		<path class="st0" d="M379.8,72.8h-11.3V21.6h11.3V72.8z"/>
		<path class="st0" d="M407,72.8c-0.4-0.7-0.8-1.8-1.1-3.2c-2.1,2.6-5,3.9-8.7,3.9c-3.4,0-6.3-1-8.7-3.1c-2.4-2.1-3.6-4.6-3.6-7.7
			c0-3.9,1.4-6.9,4.3-8.9c2.9-2,7.1-3,12.6-3h3.5v-1.9c0-3.3-1.4-5-4.3-5c-2.7,0-4,1.3-4,4h-11.2c0-3.5,1.5-6.3,4.4-8.5
			s6.7-3.3,11.3-3.3c4.6,0,8.2,1.1,10.9,3.4c2.7,2.2,4,5.3,4.1,9.2v16c0,3.3,0.6,5.8,1.5,7.6v0.6H407z M400,65.5
			c1.4,0,2.6-0.3,3.5-0.9c0.9-0.6,1.6-1.3,2-2v-5.8h-3.3c-3.9,0-5.9,1.8-5.9,5.3c0,1,0.3,1.8,1,2.5C398.1,65.2,398.9,65.5,400,65.5z
			"/>
		<path class="st0" d="M421.5,54.5c0-5.7,1.2-10.2,3.7-13.5c2.5-3.3,5.9-4.9,10.3-4.9c3.2,0,5.9,1.3,8.1,3.8V21.6H455v51.2h-10.1
			l-0.6-3.9c-2.3,3-5.2,4.5-8.8,4.5c-4.3,0-7.7-1.6-10.2-4.9S421.5,60.6,421.5,54.5z M432.8,55.2c0,6.4,1.9,9.6,5.6,9.6
			c2.5,0,4.3-1,5.3-3.1V48c-1-2.1-2.8-3.2-5.3-3.2c-3.5,0-5.3,2.8-5.6,8.4L432.8,55.2z"/>
		<path class="st0" d="M459.9,54.5c0-3.6,0.7-6.8,2.1-9.6c1.4-2.8,3.4-5,6-6.5c2.6-1.5,5.7-2.3,9.2-2.3c5.4,0,9.7,1.7,12.8,5
			c3.1,3.3,4.7,7.9,4.7,13.6v0.4c0,5.6-1.6,10.1-4.7,13.4c-3.1,3.3-7.3,4.9-12.7,4.9c-5.1,0-9.3-1.5-12.4-4.6
			c-3.1-3.1-4.8-7.2-5-12.5L459.9,54.5z M471.2,55.2c0,3.3,0.5,5.8,1.6,7.3c1,1.6,2.6,2.3,4.6,2.3c4,0,6-3.1,6.1-9.2v-1.1
			c0-6.5-2.1-9.7-6.2-9.7c-3.8,0-5.8,2.8-6.1,8.4L471.2,55.2z"/>
		<path class="st0" d="M521.5,46.9l-3.7-0.3c-3.5,0-5.8,1.1-6.8,3.3v22.8h-11.2V36.8h10.5l0.4,4.6c1.9-3.5,4.5-5.3,7.9-5.3
			c1.2,0,2.2,0.1,3.1,0.4L521.5,46.9z"/>
		<path class="st0" d="M544.8,72.8c-0.4-0.7-0.8-1.8-1.1-3.2c-2.1,2.6-5,3.9-8.7,3.9c-3.4,0-6.3-1-8.7-3.1c-2.4-2.1-3.6-4.6-3.6-7.7
			c0-3.9,1.4-6.9,4.3-8.9c2.9-2,7.1-3,12.6-3h3.5v-1.9c0-3.3-1.4-5-4.3-5c-2.7,0-4,1.3-4,4h-11.2c0-3.5,1.5-6.3,4.4-8.5
			s6.7-3.3,11.3-3.3c4.6,0,8.2,1.1,10.9,3.4c2.7,2.2,4,5.3,4.1,9.2v16c0,3.3,0.6,5.8,1.5,7.6v0.6H544.8z M537.8,65.5
			c1.4,0,2.6-0.3,3.5-0.9c0.9-0.6,1.6-1.3,2-2v-5.8H540c-3.9,0-5.9,1.8-5.9,5.3c0,1,0.3,1.8,1,2.5C535.9,65.2,536.7,65.5,537.8,65.5
			z"/>
	</g>
	<g>
		<rect x="19.3" y="20.9" class="st1" width="16.9" height="50.6"/>
		<polygon class="st2" points="61.5,71.4 44.6,71.4 19.3,20.9 36.2,20.9 		"/>
		<polygon class="st1" points="44.6,71.4 61.5,71.4 86.8,20.9 69.9,20.9 		"/>
		<rect x="69.9" y="20.9" class="st2" width="16.9" height="50.6"/>
		<path class="st0" d="M111.2,72.8c-2.8,0-5.2-0.5-7.4-1.3c-2.2-0.9-4-2.1-5.6-3.7c-1.5-1.6-2.7-3.4-3.5-5.5
			c-0.8-2.1-1.2-4.3-1.2-6.7v-1.3c0-2.7,0.4-5.2,1.2-7.4c0.8-2.2,1.9-4.2,3.3-5.8c1.4-1.6,3.2-2.9,5.2-3.8c2.1-0.9,4.4-1.4,6.9-1.4
			c2.6,0,4.8,0.4,6.8,1.3c2,0.8,3.6,2,4.9,3.6c1.3,1.5,2.3,3.4,3,5.5c0.7,2.2,1,4.5,1,7.2v4h-22.7c0.2,1.2,0.5,2.2,0.9,3.2
			c0.5,0.9,1.1,1.8,1.8,2.4c0.7,0.7,1.6,1.2,2.6,1.6c1,0.4,2.1,0.6,3.3,0.6c1.7,0,3.3-0.3,4.8-1c1.5-0.6,2.7-1.7,3.8-3l4.7,5.2
			c-0.6,0.8-1.3,1.6-2.1,2.4c-0.9,0.8-1.9,1.5-3,2.1c-1.2,0.6-2.5,1.1-3.9,1.4C114.5,72.6,112.9,72.8,111.2,72.8z M110.1,43.5
			c-1,0-1.9,0.2-2.7,0.5c-0.8,0.4-1.4,0.9-2,1.5c-0.6,0.6-1,1.4-1.4,2.3c-0.4,0.9-0.6,1.9-0.8,3h13.2v-0.8c0-0.9-0.2-1.8-0.4-2.6
			c-0.3-0.8-0.6-1.5-1.2-2.1c-0.5-0.6-1.2-1.1-2-1.4C112.2,43.7,111.2,43.5,110.1,43.5z"/>
		<path class="st0" d="M129.9,54c0-2.7,0.3-5.2,1-7.4c0.7-2.2,1.6-4.2,2.9-5.8c1.2-1.6,2.7-2.8,4.5-3.7c1.8-0.9,3.8-1.3,6-1.3
			c2.1,0,3.9,0.4,5.3,1.1c1.5,0.7,2.7,1.7,3.8,3l0.4-3.4h8.6v34.4c0,2.4-0.4,4.6-1.3,6.5c-0.8,1.9-2,3.5-3.5,4.8
			c-1.5,1.3-3.3,2.3-5.4,3c-2.1,0.7-4.4,1-7,1c-1.1,0-2.3-0.1-3.5-0.3c-1.2-0.2-2.4-0.6-3.6-1c-1.2-0.5-2.3-1-3.4-1.7
			c-1.1-0.7-2-1.5-2.7-2.5l4.2-5.8c1.1,1.3,2.4,2.2,3.8,2.9c1.4,0.7,3,1.1,4.8,1.1c2.5,0,4.5-0.7,5.9-2c1.4-1.3,2.1-3.3,2.1-5.7V69
			c-1.1,1.2-2.3,2.1-3.7,2.7c-1.4,0.6-3.1,1-4.9,1c-2.2,0-4.2-0.5-6-1.4c-1.8-0.9-3.3-2.2-4.5-3.8c-1.2-1.6-2.2-3.5-2.9-5.7
			c-0.7-2.2-1-4.6-1-7.2V54z M139.4,54.7c0,1.4,0.1,2.8,0.4,4c0.3,1.3,0.7,2.3,1.3,3.3c0.6,0.9,1.4,1.7,2.3,2.2
			c0.9,0.5,2,0.8,3.2,0.8c1.5,0,2.8-0.3,3.8-0.9c1-0.6,1.8-1.4,2.4-2.4v-15c-0.6-1.1-1.4-1.9-2.4-2.4c-1-0.6-2.2-0.8-3.7-0.8
			c-1.3,0-2.3,0.3-3.2,0.8c-0.9,0.5-1.7,1.3-2.3,2.2c-0.6,0.9-1.1,2.1-1.4,3.3c-0.3,1.3-0.4,2.6-0.4,4.1V54.7z"/>
		<path class="st0" d="M190.3,72c-0.4-0.9-0.8-1.9-1-3.2c-1,1.1-2.2,2-3.6,2.7c-1.5,0.7-3.2,1.1-5.4,1.1c-1.7,0-3.3-0.3-4.8-0.8
			c-1.5-0.5-2.8-1.3-3.8-2.2c-1.1-0.9-1.9-2.1-2.5-3.4c-0.6-1.3-0.9-2.7-0.9-4.3c0-1.9,0.3-3.5,1-5c0.7-1.4,1.7-2.7,3.1-3.7
			c1.4-1,3.1-1.8,5.2-2.3c2.1-0.5,4.4-0.8,7.2-0.8l4.2,0l0-2c0-1.6-0.4-3-1.3-4c-0.8-1-2.2-1.5-4-1.5c-1.6,0-2.9,0.4-3.8,1.1
			c-0.9,0.8-1.4,1.8-1.4,3.2l-9.5,0c0-1.5,0.4-3,1.1-4.4c0.7-1.4,1.7-2.6,3-3.6c1.3-1,2.9-1.8,4.8-2.4c1.9-0.6,4-0.9,6.3-0.9
			c2.1,0,4,0.3,5.7,0.8c1.8,0.5,3.3,1.3,4.5,2.4c1.3,1,2.3,2.4,3,3.9c0.7,1.6,1.1,3.4,1.1,5.5l0,15.1c0,1,0,1.9,0.1,2.7
			c0.1,0.8,0.2,1.5,0.3,2.2c0.1,0.6,0.3,1.2,0.4,1.7c0.2,0.5,0.4,1,0.6,1.5l0,0.6L190.3,72z M182.5,65.4c0.8,0,1.6-0.1,2.3-0.3
			c0.7-0.2,1.3-0.5,1.9-0.8c0.5-0.3,1-0.7,1.4-1.1c0.4-0.4,0.7-0.8,1-1.3l0-6.1l-3.9,0c-1.3,0-2.3,0.1-3.3,0.4
			c-0.9,0.3-1.7,0.7-2.3,1.2c-0.6,0.5-1,1.1-1.3,1.7c-0.3,0.7-0.4,1.4-0.4,2.2c0,1.2,0.4,2.2,1.2,2.9C179.9,65,181,65.4,182.5,65.4z
			"/>
	</g>
	<g>
		<g>
			<path class="st0" d="M584.5,72.8V24.3h17.4c6.2,0,11,1.1,14.2,3.4s4.9,5.6,4.9,10c0,2.5-0.6,4.7-1.7,6.4s-2.9,3.1-5.1,3.9
				c2.5,0.7,4.5,1.9,5.8,3.7c1.4,1.8,2,4,2,6.7c0,4.8-1.5,8.3-4.5,10.7c-3,2.4-7.5,3.6-13.4,3.6H584.5z M596.2,44.5h6.1
				c2.6,0,4.4-0.5,5.5-1.4c1.1-0.9,1.6-2.3,1.6-4c0-2-0.6-3.5-1.8-4.4c-1.2-0.9-3.1-1.4-5.7-1.4h-5.7V44.5z M596.2,52.2v11.6h7.7
				c2.1,0,3.7-0.5,4.9-1.5c1.1-1,1.7-2.3,1.7-4.1c0-4-2-6.1-6-6.1H596.2z"/>
			<path class="st0" d="M627.9,27.5c0-1.6,0.6-2.9,1.7-3.9c1.2-1,2.7-1.5,4.5-1.5s3.3,0.5,4.5,1.5c1.2,1,1.7,2.3,1.7,3.9
				s-0.6,2.9-1.7,3.9s-2.7,1.5-4.5,1.5s-3.3-0.5-4.5-1.5S627.9,29.1,627.9,27.5z M639.9,72.8h-11.3V36.8h11.3V72.8z"/>
			<path class="st0" d="M657.1,36.8l0.4,4.2c2.5-3.3,5.9-4.9,10.3-4.9c3.8,0,6.6,1.1,8.4,3.4c1.9,2.2,2.8,5.6,2.9,10.1v23.2h-11.3
				V50.1c0-1.8-0.4-3.2-1.1-4c-0.7-0.9-2.1-1.3-4-1.3c-2.2,0-3.8,0.9-4.9,2.6v25.5h-11.2V36.8H657.1z"/>
			<path class="st0" d="M705.6,72.8c-0.4-0.7-0.8-1.8-1.1-3.2c-2.1,2.6-5,3.9-8.7,3.9c-3.4,0-6.3-1-8.7-3.1
				c-2.4-2.1-3.6-4.6-3.6-7.7c0-3.9,1.4-6.9,4.3-8.9c2.9-2,7.1-3,12.6-3h3.5v-1.9c0-3.3-1.4-5-4.3-5c-2.7,0-4,1.3-4,4h-11.2
				c0-3.5,1.5-6.3,4.4-8.5s6.7-3.3,11.3-3.3c4.6,0,8.2,1.1,10.9,3.4c2.7,2.2,4,5.3,4.1,9.2v16c0,3.3,0.6,5.8,1.5,7.6v0.6H705.6z
				 M698.5,65.5c1.4,0,2.6-0.3,3.5-0.9c0.9-0.6,1.6-1.3,2-2v-5.8h-3.3c-3.9,0-5.9,1.8-5.9,5.3c0,1,0.3,1.8,1,2.5
				C696.6,65.2,697.5,65.5,698.5,65.5z"/>
			<path class="st0" d="M743.3,46.9l-3.7-0.3c-3.5,0-5.8,1.1-6.8,3.3v22.8h-11.2V36.8h10.5l0.4,4.6c1.9-3.5,4.5-5.3,7.9-5.3
				c1.2,0,2.2,0.1,3.1,0.4L743.3,46.9z"/>
			<path class="st0" d="M747.3,27.5c0-1.6,0.6-2.9,1.7-3.9c1.2-1,2.7-1.5,4.5-1.5s3.3,0.5,4.5,1.5c1.2,1,1.7,2.3,1.7,3.9
				s-0.6,2.9-1.7,3.9s-2.7,1.5-4.5,1.5s-3.3-0.5-4.5-1.5S747.3,29.1,747.3,27.5z M759.2,72.8h-11.3V36.8h11.3V72.8z"/>
			<path class="st0" d="M786.4,72.8c-0.4-0.7-0.8-1.8-1.1-3.2c-2.1,2.6-5,3.9-8.7,3.9c-3.4,0-6.3-1-8.7-3.1
				c-2.4-2.1-3.6-4.6-3.6-7.7c0-3.9,1.4-6.9,4.3-8.9c2.9-2,7.1-3,12.6-3h3.5v-1.9c0-3.3-1.4-5-4.3-5c-2.7,0-4,1.3-4,4h-11.2
				c0-3.5,1.5-6.3,4.4-8.5s6.7-3.3,11.3-3.3c4.6,0,8.2,1.1,10.9,3.4c2.7,2.2,4,5.3,4.1,9.2v16c0,3.3,0.6,5.8,1.5,7.6v0.6H786.4z
				 M779.4,65.5c1.4,0,2.6-0.3,3.5-0.9c0.9-0.6,1.6-1.3,2-2v-5.8h-3.3c-3.9,0-5.9,1.8-5.9,5.3c0,1,0.3,1.8,1,2.5
				C777.4,65.2,778.3,65.5,779.4,65.5z"/>
		</g>
	</g>
</g>
</svg>
